# xmcd CD database file
#
# Track frame offsets:
#	150
#	20728
#	36354
#	51654
#	72572
#	89400
#	104700
#	117092
#	135674
#	147288
#	165929
#	182279
#	197853
#	214878
#	233720
#
# Disc length: 3340 seconds
#
# Revision: 0
# Processed by: cddbd v1.5.1PL0 Copyright (c) Steve Scherf et al.
# Submitted via: CDex 1.51
#
DISCID=e10d0a0f
DTITLE=Dejinha de Monteiro - Leva eu
DYEAR=2004
DGENRE=Country
TTITLE0=Meu paraiso
TTITLE1=Leva eu
TTITLE2=Meu grande amor
TTITLE3=O amor e como tempestade
TTITLE4=Vaqueiro apaixonado
TTITLE5=Parece que foi ontem
TTITLE6=Tem que ser forro
TTITLE7=Nao chore mais
TTITLE8=Forro de rotina
TTITLE9=Por amor
TTITLE10=Menina do interior
TTITLE11=Festa junina
TTITLE12=A paz no mundo
TTITLE13=Quando o sol chegar
TTITLE14=Amanheceu
EXTD=YEAR: 2004
EXTT0=
EXTT1=
EXTT2=
EXTT3=
EXTT4=
EXTT5=
EXTT6=
EXTT7=
EXTT8=
EXTT9=
EXTT10=
EXTT11=
EXTT12=
EXTT13=
EXTT14=
PLAYORDER=
